<svg width="920" height="370" viewBox="0 0 920 370" fill="none" xmlns="http://www.w3.org/2000/svg" role="img" aria-labelledby="title desc">
  <title id="title">Tsuki Run logo</title>
  <desc id="desc">Handwritten Tsuki Run wordmark with a small crescent moon and tagline.</desc>
  <g fill="#1f1c1a" fill-rule="evenodd">
    <path d="M 807 315 L 806 316 L 806 319 L 807 320 L 807 324 L 806 325 L 806 333 L 808 334 L 808 327 L 809 326 L 813 326 L 816 332 L 818 334 L 819 334 L 815 326 L 819 321 L 818 317 L 815 315 Z M 808 317 L 809 316 L 813 316 L 815 317 L 817 319 L 817 322 L 813 325 L 809 325 L 808 324 Z M 778 315 L 778 334 L 789 334 L 788 332 L 780 332 L 779 331 L 779 326 L 780 325 L 787 325 L 787 324 L 785 323 L 780 323 L 779 322 L 779 318 L 781 316 L 789 316 L 789 315 Z M 746 315 L 745 316 L 745 318 L 746 319 L 746 327 L 745 328 L 745 333 L 747 334 L 747 320 L 748 319 L 750 321 L 751 324 L 753 326 L 757 333 L 759 334 L 760 333 L 760 322 L 759 321 L 759 315 L 758 315 L 758 329 L 757 330 L 755 326 L 749 318 L 749 317 L 747 315 Z M 713 315 L 713 333 L 715 334 L 715 320 L 716 319 L 719 323 L 720 326 L 724 331 L 724 332 L 726 334 L 727 334 L 727 315 L 726 315 L 726 329 L 725 330 L 722 326 L 721 323 L 718 320 L 717 317 L 715 315 Z M 688 315 L 687 316 L 686 321 L 684 324 L 683 329 L 681 332 L 681 334 L 683 333 L 683 331 L 685 328 L 692 328 L 694 330 L 695 334 L 696 334 L 696 331 L 693 325 L 693 323 L 690 317 L 690 315 Z M 689 318 L 691 321 L 692 326 L 691 327 L 686 327 L 685 326 Z M 655 315 L 655 334 L 665 334 L 665 332 L 661 332 L 660 333 L 658 333 L 656 331 L 657 330 L 657 318 L 656 317 L 656 315 Z M 634 315 L 626 315 L 626 334 L 627 334 L 627 328 L 629 326 L 635 326 L 638 323 L 638 318 Z M 627 318 L 629 316 L 633 316 L 636 318 L 636 323 L 633 325 L 629 325 L 627 323 Z M 578 316 L 576 318 L 575 322 L 574 323 L 574 326 L 575 327 L 576 331 L 580 334 L 586 334 L 587 333 L 589 333 L 590 332 L 590 325 L 584 325 L 584 326 L 587 326 L 588 327 L 588 331 L 585 333 L 582 333 L 580 332 L 576 327 L 576 322 L 577 320 L 581 316 L 584 316 L 587 318 L 589 318 L 589 317 L 586 315 L 580 315 Z M 544 315 L 544 334 L 545 334 L 545 320 L 546 319 L 549 323 L 550 326 L 554 331 L 554 332 L 556 334 L 557 334 L 557 315 L 556 315 L 556 329 L 555 330 L 552 326 L 551 323 L 547 318 L 547 317 L 545 315 Z M 524 315 L 524 334 L 525 334 L 525 315 Z M 492 315 L 492 334 L 493 334 L 493 320 L 494 319 L 496 321 L 497 324 L 499 326 L 503 333 L 505 334 L 505 315 L 504 315 L 504 329 L 503 330 L 501 326 L 495 318 L 494 315 Z M 460 315 L 460 334 L 461 334 L 461 320 L 462 319 L 469 329 L 470 332 L 472 334 L 473 334 L 473 315 L 472 315 L 472 329 L 471 330 L 468 326 L 467 323 L 463 318 L 463 317 L 461 315 Z M 428 315 L 428 331 L 432 334 L 437 334 L 439 333 L 441 330 L 441 315 L 440 315 L 440 329 L 436 333 L 433 333 L 429 329 L 429 315 Z M 398 315 L 398 334 L 399 334 L 399 332 L 400 331 L 400 327 L 401 326 L 404 326 L 406 328 L 408 333 L 410 334 L 410 332 L 408 328 L 406 326 L 410 323 L 410 318 L 406 315 Z M 400 317 L 401 316 L 405 316 L 408 318 L 408 322 L 404 325 L 401 325 L 400 324 Z M 353 315 L 352 316 L 352 333 L 353 334 L 363 334 L 363 333 L 361 333 L 360 332 L 355 332 L 354 331 L 354 315 Z M 320 315 L 320 329 L 321 331 L 325 334 L 330 334 L 332 333 L 334 330 L 334 315 L 333 315 L 333 328 L 329 333 L 326 333 L 322 330 L 322 315 Z M 303 315 L 293 315 L 292 316 L 292 333 L 294 333 L 294 326 L 295 325 L 302 325 L 302 324 L 295 324 L 294 323 L 294 317 L 295 316 L 303 316 Z M 260 315 L 260 334 L 268 334 L 269 333 L 271 333 L 274 330 L 274 328 L 275 327 L 275 321 L 274 319 L 271 316 L 269 316 L 268 315 Z M 263 316 L 267 316 L 269 317 L 273 321 L 273 328 L 269 332 L 263 332 L 262 331 L 262 317 Z M 228 315 L 228 334 L 229 334 L 229 320 L 230 319 L 238 330 L 239 333 L 240 334 L 242 334 L 242 315 L 240 316 L 240 328 L 239 329 L 232 319 L 232 318 L 229 315 Z M 208 315 L 208 334 L 209 334 L 210 333 L 210 316 Z M 172 315 L 171 316 L 171 334 L 173 333 L 173 321 L 174 320 L 178 328 L 179 333 L 181 333 L 184 327 L 185 322 L 187 319 L 188 320 L 188 334 L 189 334 L 189 315 L 187 315 L 184 321 L 184 323 L 183 324 L 183 326 L 181 330 L 179 329 L 178 324 L 176 321 L 176 319 L 174 315 Z M 129 315 L 127 315 L 126 316 L 126 318 L 125 319 L 125 321 L 124 322 L 124 324 L 123 325 L 123 327 L 121 330 L 120 334 L 122 333 L 123 329 L 124 328 L 132 328 L 133 329 L 134 333 L 135 333 L 135 331 L 134 330 L 134 328 L 133 327 L 133 325 L 132 324 L 132 322 L 130 319 Z M 128 318 L 130 321 L 131 326 L 130 327 L 125 327 L 124 326 Z M 677 204 L 682 208 L 686 208 L 687 207 L 692 206 L 694 204 L 697 203 L 699 201 L 705 198 L 708 195 L 712 193 L 713 194 L 713 201 L 714 203 L 716 205 L 720 207 L 726 207 L 727 206 L 730 206 L 736 203 L 738 203 L 751 196 L 755 195 L 756 197 L 754 199 L 754 201 L 752 205 L 755 208 L 758 209 L 771 196 L 772 196 L 775 193 L 776 193 L 779 190 L 780 190 L 785 186 L 789 185 L 790 186 L 791 195 L 794 201 L 797 205 L 806 210 L 809 210 L 810 211 L 828 211 L 829 210 L 834 210 L 835 209 L 838 209 L 839 208 L 846 207 L 850 205 L 857 204 L 858 203 L 860 203 L 861 202 L 863 202 L 864 201 L 866 201 L 867 200 L 869 200 L 870 199 L 872 199 L 873 198 L 881 196 L 882 194 L 876 195 L 875 196 L 872 196 L 869 198 L 865 198 L 864 199 L 860 199 L 859 200 L 855 200 L 854 201 L 850 201 L 849 202 L 844 202 L 843 203 L 839 203 L 838 204 L 833 204 L 832 205 L 825 205 L 824 206 L 815 206 L 814 205 L 811 205 L 810 204 L 808 204 L 804 202 L 800 198 L 798 194 L 798 191 L 797 190 L 797 185 L 796 184 L 796 181 L 794 179 L 792 178 L 789 178 L 779 183 L 777 185 L 770 189 L 769 188 L 773 181 L 772 179 L 770 178 L 767 178 L 765 180 L 763 185 L 760 188 L 746 195 L 744 195 L 741 197 L 739 197 L 738 198 L 736 198 L 735 199 L 733 199 L 729 201 L 722 201 L 720 199 L 720 195 L 721 194 L 721 192 L 724 186 L 726 184 L 726 180 L 724 179 L 720 179 L 714 185 L 713 185 L 703 193 L 700 194 L 695 198 L 689 201 L 685 202 L 684 201 L 685 195 L 687 193 L 688 190 L 694 182 L 694 180 L 692 178 L 689 178 L 683 185 L 682 188 L 680 190 L 677 196 Z M 477 151 L 474 151 L 470 156 L 470 158 L 474 161 L 475 161 L 480 156 L 479 152 Z M 506 197 L 503 197 L 500 199 L 498 199 L 494 201 L 491 201 L 490 202 L 488 202 L 487 203 L 485 203 L 481 205 L 477 205 L 473 207 L 469 207 L 468 208 L 457 208 L 454 205 L 454 201 L 455 200 L 455 197 L 457 195 L 458 192 L 464 184 L 464 182 L 462 180 L 458 180 L 450 190 L 440 195 L 438 195 L 433 198 L 428 199 L 422 202 L 419 202 L 418 203 L 416 203 L 412 205 L 404 206 L 403 207 L 395 207 L 394 206 L 392 206 L 388 203 L 387 203 L 378 195 L 378 194 L 376 192 L 378 190 L 382 188 L 384 188 L 393 183 L 395 183 L 405 178 L 407 178 L 408 177 L 410 177 L 414 175 L 414 173 L 412 171 L 407 171 L 404 173 L 402 173 L 399 175 L 397 175 L 394 177 L 392 177 L 385 181 L 383 181 L 376 185 L 375 184 L 378 178 L 382 173 L 384 168 L 387 165 L 388 162 L 392 157 L 393 154 L 395 152 L 395 151 L 403 140 L 404 137 L 406 135 L 406 134 L 408 132 L 408 131 L 410 129 L 410 128 L 427 103 L 426 99 L 422 98 L 415 108 L 415 109 L 413 111 L 413 112 L 410 115 L 410 116 L 408 118 L 408 119 L 406 121 L 406 122 L 404 124 L 404 125 L 402 127 L 402 128 L 400 130 L 396 137 L 394 139 L 393 142 L 391 144 L 391 145 L 389 147 L 389 148 L 387 150 L 383 157 L 381 159 L 380 162 L 378 164 L 377 167 L 375 169 L 372 175 L 368 180 L 364 188 L 361 191 L 353 195 L 351 195 L 341 200 L 339 200 L 338 201 L 336 201 L 335 202 L 333 202 L 332 203 L 330 203 L 329 204 L 327 204 L 326 205 L 324 205 L 320 207 L 311 208 L 308 206 L 308 202 L 311 196 L 318 187 L 318 186 L 315 183 L 311 183 L 306 188 L 305 188 L 302 191 L 301 191 L 296 195 L 293 196 L 291 198 L 279 204 L 273 205 L 272 204 L 276 196 L 284 186 L 284 185 L 282 183 L 278 182 L 271 191 L 265 191 L 264 192 L 252 192 L 251 193 L 245 193 L 244 194 L 239 194 L 238 195 L 233 195 L 232 196 L 224 197 L 223 196 L 223 194 L 222 193 L 222 191 L 220 187 L 220 183 L 221 181 L 224 178 L 231 174 L 234 174 L 236 173 L 239 176 L 239 177 L 242 177 L 243 175 L 243 172 L 241 169 L 237 167 L 232 167 L 231 168 L 226 169 L 219 173 L 216 176 L 214 180 L 214 188 L 217 194 L 217 198 L 214 200 L 212 200 L 211 201 L 209 201 L 205 203 L 202 203 L 194 207 L 192 210 L 192 212 L 194 216 L 196 218 L 200 220 L 202 220 L 203 221 L 212 221 L 213 220 L 217 219 L 222 214 L 224 210 L 224 207 L 225 206 L 225 201 L 226 200 L 230 200 L 231 199 L 234 199 L 235 198 L 245 197 L 246 196 L 250 196 L 251 195 L 256 195 L 257 194 L 268 194 L 269 195 L 267 197 L 267 199 L 265 202 L 265 206 L 267 210 L 271 212 L 275 212 L 276 211 L 278 211 L 290 205 L 300 198 L 301 199 L 301 201 L 300 202 L 300 207 L 301 209 L 305 213 L 307 213 L 308 214 L 314 214 L 315 213 L 317 213 L 321 211 L 327 210 L 330 208 L 332 208 L 335 206 L 337 206 L 340 204 L 342 204 L 347 201 L 349 201 L 357 197 L 358 198 L 356 200 L 354 205 L 352 207 L 346 219 L 344 221 L 345 224 L 346 224 L 348 226 L 352 226 L 352 224 L 356 216 L 358 214 L 365 200 L 369 195 L 385 209 L 391 212 L 397 212 L 398 213 L 400 212 L 406 212 L 407 211 L 410 211 L 411 210 L 419 208 L 429 203 L 431 203 L 440 198 L 442 198 L 447 195 L 448 196 L 448 198 L 447 199 L 447 205 L 449 209 L 451 211 L 455 213 L 467 213 L 468 212 L 470 212 L 474 210 L 477 210 L 478 209 L 486 207 L 489 205 L 491 205 L 494 203 L 496 203 L 500 200 L 502 200 L 506 198 Z M 218 204 L 218 208 L 216 210 L 216 211 L 214 213 L 210 215 L 208 215 L 207 216 L 205 215 L 201 215 L 197 212 L 198 210 L 206 206 L 208 206 L 209 205 L 211 205 L 215 203 L 217 203 Z M 684 89 L 681 88 L 677 85 L 675 85 L 671 83 L 668 83 L 667 82 L 661 82 L 660 81 L 649 81 L 648 82 L 641 82 L 640 83 L 636 83 L 635 84 L 632 84 L 631 85 L 628 85 L 627 86 L 619 88 L 614 91 L 612 91 L 602 96 L 600 98 L 597 99 L 595 101 L 591 103 L 588 106 L 587 106 L 577 115 L 573 122 L 574 126 L 576 126 L 576 122 L 584 114 L 585 114 L 588 111 L 589 111 L 600 103 L 614 96 L 616 96 L 619 94 L 621 94 L 622 93 L 624 93 L 628 91 L 631 91 L 635 89 L 644 88 L 645 87 L 663 87 L 664 88 L 669 88 L 670 89 L 675 90 L 679 93 L 680 93 L 686 99 L 687 101 L 687 104 L 688 105 L 688 110 L 687 111 L 687 114 L 681 126 L 678 129 L 678 130 L 663 145 L 662 145 L 658 149 L 657 149 L 654 152 L 653 152 L 642 160 L 635 163 L 633 165 L 623 170 L 621 170 L 618 172 L 616 172 L 608 176 L 605 176 L 601 178 L 594 179 L 593 177 L 599 165 L 601 163 L 606 152 L 608 150 L 615 135 L 617 133 L 617 131 L 615 129 L 612 129 L 610 131 L 606 140 L 604 142 L 602 147 L 597 154 L 595 159 L 593 161 L 587 173 L 582 180 L 573 198 L 571 200 L 565 213 L 563 215 L 556 229 L 556 232 L 558 234 L 560 235 L 563 235 L 564 234 L 564 231 L 575 209 L 577 207 L 581 198 L 583 196 L 586 189 L 589 185 L 591 187 L 597 190 L 601 194 L 602 194 L 605 197 L 606 197 L 615 205 L 616 205 L 623 211 L 627 213 L 630 216 L 633 217 L 636 220 L 641 222 L 643 224 L 655 230 L 657 230 L 660 232 L 662 232 L 663 233 L 665 233 L 666 234 L 668 234 L 672 236 L 680 237 L 681 238 L 687 238 L 688 239 L 698 238 L 700 236 L 700 234 L 688 234 L 687 233 L 679 232 L 678 231 L 676 231 L 675 230 L 667 228 L 660 224 L 656 223 L 654 221 L 645 217 L 643 215 L 642 215 L 640 213 L 639 213 L 637 211 L 630 207 L 627 204 L 626 204 L 623 201 L 622 201 L 618 197 L 617 197 L 614 194 L 613 194 L 609 190 L 608 190 L 603 185 L 606 183 L 614 181 L 617 179 L 619 179 L 622 177 L 624 177 L 629 174 L 631 174 L 635 171 L 644 167 L 652 161 L 655 160 L 657 158 L 661 156 L 665 152 L 666 152 L 669 149 L 670 149 L 671 147 L 673 146 L 682 137 L 682 136 L 685 133 L 685 132 L 689 127 L 692 121 L 692 118 L 693 117 L 693 114 L 694 113 L 694 105 L 693 104 L 692 99 L 689 95 L 689 94 Z M 209 81 L 206 82 L 206 83 L 198 94 L 197 97 L 189 108 L 188 111 L 182 119 L 181 122 L 177 127 L 176 130 L 174 132 L 173 135 L 168 142 L 162 154 L 157 161 L 153 170 L 151 172 L 149 177 L 147 179 L 144 186 L 142 188 L 111 250 L 113 255 L 115 256 L 120 256 L 120 253 L 121 252 L 122 247 L 132 227 L 132 225 L 135 219 L 137 217 L 137 215 L 140 211 L 140 209 L 143 205 L 152 186 L 154 184 L 159 173 L 161 171 L 165 162 L 167 160 L 172 150 L 172 147 L 174 146 L 177 142 L 180 135 L 182 133 L 183 130 L 188 123 L 189 119 L 191 118 L 195 110 L 197 108 L 200 102 L 202 100 L 202 99 L 208 91 L 209 88 L 211 86 L 211 83 Z M 300 64 L 295 60 L 293 60 L 292 59 L 288 59 L 287 58 L 255 58 L 254 59 L 240 59 L 239 60 L 220 61 L 219 62 L 212 62 L 211 63 L 198 64 L 197 65 L 193 65 L 192 66 L 186 66 L 185 67 L 180 67 L 179 68 L 173 68 L 172 69 L 162 70 L 161 71 L 158 71 L 157 72 L 152 72 L 151 73 L 148 73 L 147 74 L 142 74 L 141 75 L 138 75 L 137 76 L 134 76 L 133 77 L 129 77 L 128 78 L 125 78 L 124 79 L 121 79 L 120 80 L 117 80 L 116 81 L 109 82 L 105 84 L 102 84 L 98 86 L 95 86 L 94 87 L 92 87 L 88 89 L 85 89 L 84 90 L 82 90 L 81 91 L 79 91 L 78 92 L 76 92 L 75 93 L 73 93 L 69 95 L 66 95 L 63 97 L 60 97 L 59 98 L 57 98 L 56 99 L 54 99 L 53 100 L 51 100 L 47 102 L 44 102 L 42 103 L 41 105 L 41 109 L 42 111 L 44 111 L 45 112 L 47 111 L 50 111 L 50 109 L 51 108 L 53 108 L 56 106 L 58 106 L 59 105 L 61 105 L 62 104 L 64 104 L 65 103 L 67 103 L 68 102 L 76 100 L 79 98 L 82 98 L 83 97 L 85 97 L 89 95 L 92 95 L 93 94 L 95 94 L 99 92 L 102 92 L 106 90 L 109 90 L 113 88 L 116 88 L 117 87 L 120 87 L 121 86 L 124 86 L 125 85 L 128 85 L 129 84 L 132 84 L 133 83 L 136 83 L 137 82 L 141 82 L 142 81 L 145 81 L 146 80 L 150 80 L 151 79 L 155 79 L 156 78 L 160 78 L 161 77 L 166 77 L 167 76 L 171 76 L 172 75 L 176 75 L 177 74 L 182 74 L 183 73 L 188 73 L 189 72 L 194 72 L 195 71 L 201 71 L 202 70 L 207 70 L 208 69 L 215 69 L 216 68 L 230 67 L 231 66 L 240 66 L 241 65 L 250 65 L 251 64 L 261 64 L 262 63 L 274 63 L 275 62 L 278 63 L 279 62 L 284 62 L 285 63 L 293 63 L 294 64 L 296 64 L 298 66 L 298 67 L 300 67 Z M 152 74 L 153 73 L 155 74 L 154 75 Z M 862 19 L 858 19 L 858 20 L 862 22 L 871 31 L 876 41 L 876 45 L 877 46 L 877 56 L 876 57 L 876 61 L 870 72 L 863 79 L 851 85 L 841 86 L 841 87 L 845 88 L 846 89 L 851 89 L 852 90 L 861 90 L 862 89 L 866 89 L 867 88 L 869 88 L 875 85 L 877 83 L 878 83 L 885 76 L 890 67 L 891 61 L 892 60 L 892 49 L 891 48 L 891 44 L 886 34 L 877 25 L 869 21 L 863 20 Z"/>
  </g>
</svg>